<svg xmlns="http://www.w3.org/2000/svg" width="50px" height="50px" version="1.1" viewBox="0 0 752 752" style="fill: white;">
 <g>
  <path d="m442.31 234.97c-52.473 0.74609-196.14 3.6992-215.18 6.5273-19.422 2.8789-12.879 30.992 4.3828 32.324 39.691 3.0703 313.62 3.3555 301.11 3.3555 27.598 0 27.641-42.883 0-42.883 12 0-68.914 0.36328-90.312 0.67578z"/>
  <path d="m442.31 355.24c-52.473 0.74609-196.14 3.6992-215.18 6.5273-19.422 2.8789-12.879 30.992 4.3828 32.324 39.691 3.0703 313.62 3.3555 301.11 3.3555 27.598 0 27.641-42.883 0-42.883 12-0.007812-68.914 0.35938-90.312 0.67578z"/>
  <path d="m442.31 475.51c-52.473 0.74609-196.14 3.6992-215.18 6.5273-19.422 2.8789-12.879 30.992 4.3828 32.324 39.691 3.0703 313.62 3.3555 301.11 3.3555 27.598 0 27.641-42.883 0-42.883 12-0.007813-68.914 0.36328-90.312 0.67578z"/>
 </g>
</svg>